<mxfile host="Electron" modified="2025-10-19T12:38:21.680Z" agent="Mozilla/5.0 (Windows NT 10.0; Win64; x64) AppleWebKit/537.36 (KHTML, like Gecko) draw.io/24.2.5 Chrome/120.0.6099.109 Electron/28.1.0 Safari/537.36" etag="ONvsbUrGI_cuRfwU-cl7" version="24.2.5" type="device" pages="2">
  <diagram name="Бумажный" id="2YBvvXClWsGukQMizWep">
    <mxGraphModel dx="819" dy="482" grid="1" gridSize="10" guides="1" tooltips="1" connect="1" arrows="1" fold="1" page="1" pageScale="1" pageWidth="850" pageHeight="1100" math="0" shadow="0">
      <root>
        <mxCell id="0" />
        <mxCell id="1" parent="0" />
        <mxCell id="aM9ryv3xv72pqoxQDRHE-1" value="Преподаватель" style="shape=umlLifeline;perimeter=lifelinePerimeter;whiteSpace=wrap;html=1;container=0;dropTarget=0;collapsible=0;recursiveResize=0;outlineConnect=0;portConstraint=eastwest;newEdgeStyle={&quot;edgeStyle&quot;:&quot;elbowEdgeStyle&quot;,&quot;elbow&quot;:&quot;vertical&quot;,&quot;curved&quot;:0,&quot;rounded&quot;:0};" parent="1" vertex="1">
          <mxGeometry x="80" y="40" width="100" height="890" as="geometry" />
        </mxCell>
        <mxCell id="aM9ryv3xv72pqoxQDRHE-4" value="" style="html=1;points=[];perimeter=orthogonalPerimeter;outlineConnect=0;targetShapes=umlLifeline;portConstraint=eastwest;newEdgeStyle={&quot;edgeStyle&quot;:&quot;elbowEdgeStyle&quot;,&quot;elbow&quot;:&quot;vertical&quot;,&quot;curved&quot;:0,&quot;rounded&quot;:0};" parent="aM9ryv3xv72pqoxQDRHE-1" vertex="1">
          <mxGeometry x="45" y="300" width="10" height="360" as="geometry" />
        </mxCell>
        <mxCell id="xvh5-MRvCne1S2RhhSmQ-19" value="Запрос журнала" style="html=1;verticalAlign=bottom;endArrow=block;edgeStyle=elbowEdgeStyle;elbow=vertical;curved=0;rounded=0;" edge="1" parent="aM9ryv3xv72pqoxQDRHE-1" source="aM9ryv3xv72pqoxQDRHE-4">
          <mxGeometry x="0.0588" relative="1" as="geometry">
            <mxPoint x="52.5" y="300" as="sourcePoint" />
            <Array as="points">
              <mxPoint x="67.5" y="300" />
            </Array>
            <mxPoint x="185" y="300" as="targetPoint" />
            <mxPoint as="offset" />
          </mxGeometry>
        </mxCell>
        <mxCell id="aM9ryv3xv72pqoxQDRHE-5" value="Староста" style="shape=umlLifeline;perimeter=lifelinePerimeter;whiteSpace=wrap;html=1;container=0;dropTarget=0;collapsible=0;recursiveResize=0;outlineConnect=0;portConstraint=eastwest;newEdgeStyle={&quot;edgeStyle&quot;:&quot;elbowEdgeStyle&quot;,&quot;elbow&quot;:&quot;vertical&quot;,&quot;curved&quot;:0,&quot;rounded&quot;:0};" parent="1" vertex="1">
          <mxGeometry x="220" y="40" width="100" height="890" as="geometry" />
        </mxCell>
        <mxCell id="aM9ryv3xv72pqoxQDRHE-6" value="" style="html=1;points=[];perimeter=orthogonalPerimeter;outlineConnect=0;targetShapes=umlLifeline;portConstraint=eastwest;newEdgeStyle={&quot;edgeStyle&quot;:&quot;elbowEdgeStyle&quot;,&quot;elbow&quot;:&quot;vertical&quot;,&quot;curved&quot;:0,&quot;rounded&quot;:0};" parent="aM9ryv3xv72pqoxQDRHE-5" vertex="1">
          <mxGeometry x="45" y="60" width="10" height="810" as="geometry" />
        </mxCell>
        <mxCell id="xvh5-MRvCne1S2RhhSmQ-1" value="Журнал" style="shape=umlLifeline;perimeter=lifelinePerimeter;whiteSpace=wrap;html=1;container=0;dropTarget=0;collapsible=0;recursiveResize=0;outlineConnect=0;portConstraint=eastwest;newEdgeStyle={&quot;edgeStyle&quot;:&quot;elbowEdgeStyle&quot;,&quot;elbow&quot;:&quot;vertical&quot;,&quot;curved&quot;:0,&quot;rounded&quot;:0};" vertex="1" parent="1">
          <mxGeometry x="360" y="40" width="100" height="890" as="geometry" />
        </mxCell>
        <mxCell id="xvh5-MRvCne1S2RhhSmQ-13" value="" style="html=1;points=[];perimeter=orthogonalPerimeter;outlineConnect=0;targetShapes=umlLifeline;portConstraint=eastwest;newEdgeStyle={&quot;edgeStyle&quot;:&quot;elbowEdgeStyle&quot;,&quot;elbow&quot;:&quot;vertical&quot;,&quot;curved&quot;:0,&quot;rounded&quot;:0};" vertex="1" parent="xvh5-MRvCne1S2RhhSmQ-1">
          <mxGeometry x="45" y="115" width="10" height="755" as="geometry" />
        </mxCell>
        <mxCell id="xvh5-MRvCne1S2RhhSmQ-3" value="Деканат" style="shape=umlLifeline;perimeter=lifelinePerimeter;whiteSpace=wrap;html=1;container=0;dropTarget=0;collapsible=0;recursiveResize=0;outlineConnect=0;portConstraint=eastwest;newEdgeStyle={&quot;edgeStyle&quot;:&quot;elbowEdgeStyle&quot;,&quot;elbow&quot;:&quot;vertical&quot;,&quot;curved&quot;:0,&quot;rounded&quot;:0};" vertex="1" parent="1">
          <mxGeometry x="500" y="40" width="100" height="890" as="geometry" />
        </mxCell>
        <mxCell id="xvh5-MRvCne1S2RhhSmQ-4" value="" style="html=1;points=[];perimeter=orthogonalPerimeter;outlineConnect=0;targetShapes=umlLifeline;portConstraint=eastwest;newEdgeStyle={&quot;edgeStyle&quot;:&quot;elbowEdgeStyle&quot;,&quot;elbow&quot;:&quot;vertical&quot;,&quot;curved&quot;:0,&quot;rounded&quot;:0};" vertex="1" parent="xvh5-MRvCne1S2RhhSmQ-3">
          <mxGeometry x="45" y="80" width="10" height="150" as="geometry" />
        </mxCell>
        <mxCell id="xvh5-MRvCne1S2RhhSmQ-35" value="" style="html=1;points=[];perimeter=orthogonalPerimeter;outlineConnect=0;targetShapes=umlLifeline;portConstraint=eastwest;newEdgeStyle={&quot;edgeStyle&quot;:&quot;elbowEdgeStyle&quot;,&quot;elbow&quot;:&quot;vertical&quot;,&quot;curved&quot;:0,&quot;rounded&quot;:0};" vertex="1" parent="xvh5-MRvCne1S2RhhSmQ-3">
          <mxGeometry x="45" y="710" width="10" height="160" as="geometry" />
        </mxCell>
        <mxCell id="xvh5-MRvCne1S2RhhSmQ-11" value="Запрос журнала" style="html=1;verticalAlign=bottom;endArrow=block;edgeStyle=elbowEdgeStyle;elbow=vertical;curved=0;rounded=0;" edge="1" parent="1" target="xvh5-MRvCne1S2RhhSmQ-3">
          <mxGeometry x="-0.5993" relative="1" as="geometry">
            <mxPoint x="275" y="120" as="sourcePoint" />
            <Array as="points">
              <mxPoint x="290" y="120" />
            </Array>
            <mxPoint x="110" y="120" as="targetPoint" />
            <mxPoint as="offset" />
          </mxGeometry>
        </mxCell>
        <mxCell id="xvh5-MRvCne1S2RhhSmQ-14" value="Выдача журнала" style="html=1;verticalAlign=bottom;endArrow=open;dashed=1;endSize=8;edgeStyle=elbowEdgeStyle;elbow=vertical;curved=0;rounded=0;" edge="1" parent="1" source="xvh5-MRvCne1S2RhhSmQ-4" target="aM9ryv3xv72pqoxQDRHE-6">
          <mxGeometry x="0.5185" relative="1" as="geometry">
            <mxPoint x="275" y="230" as="targetPoint" />
            <Array as="points">
              <mxPoint x="345" y="230" />
            </Array>
            <mxPoint x="405" y="230" as="sourcePoint" />
            <mxPoint as="offset" />
          </mxGeometry>
        </mxCell>
        <mxCell id="xvh5-MRvCne1S2RhhSmQ-17" value="Начало семестра" style="shape=umlFrame;whiteSpace=wrap;html=1;pointerEvents=0;width=80;height=35;" vertex="1" parent="1">
          <mxGeometry x="170" y="85" width="420" height="200" as="geometry" />
        </mxCell>
        <mxCell id="xvh5-MRvCne1S2RhhSmQ-20" value="Поиск журнала" style="html=1;verticalAlign=bottom;endArrow=block;edgeStyle=elbowEdgeStyle;elbow=vertical;curved=0;rounded=0;" edge="1" parent="1" source="aM9ryv3xv72pqoxQDRHE-6" target="xvh5-MRvCne1S2RhhSmQ-13">
          <mxGeometry x="0.0588" relative="1" as="geometry">
            <mxPoint x="280" y="370" as="sourcePoint" />
            <Array as="points">
              <mxPoint x="292.5" y="370" />
            </Array>
            <mxPoint x="390" y="370" as="targetPoint" />
            <mxPoint as="offset" />
          </mxGeometry>
        </mxCell>
        <mxCell id="xvh5-MRvCne1S2RhhSmQ-21" value="Журнал найден" style="html=1;verticalAlign=bottom;endArrow=open;dashed=1;endSize=8;edgeStyle=elbowEdgeStyle;elbow=vertical;curved=0;rounded=0;" edge="1" parent="1" source="xvh5-MRvCne1S2RhhSmQ-13" target="aM9ryv3xv72pqoxQDRHE-6">
          <mxGeometry relative="1" as="geometry">
            <mxPoint x="270" y="420" as="targetPoint" />
            <Array as="points">
              <mxPoint x="340" y="420" />
            </Array>
            <mxPoint x="400" y="420" as="sourcePoint" />
          </mxGeometry>
        </mxCell>
        <mxCell id="xvh5-MRvCne1S2RhhSmQ-22" value="Выдача журнала" style="html=1;verticalAlign=bottom;endArrow=open;dashed=1;endSize=8;edgeStyle=elbowEdgeStyle;elbow=vertical;curved=0;rounded=0;" edge="1" parent="1" source="aM9ryv3xv72pqoxQDRHE-6" target="aM9ryv3xv72pqoxQDRHE-4">
          <mxGeometry relative="1" as="geometry">
            <mxPoint x="140" y="450" as="targetPoint" />
            <Array as="points">
              <mxPoint x="205" y="450" />
            </Array>
            <mxPoint x="270" y="450" as="sourcePoint" />
          </mxGeometry>
        </mxCell>
        <mxCell id="xvh5-MRvCne1S2RhhSmQ-23" value="Поиск журнала" style="html=1;verticalAlign=bottom;endArrow=block;edgeStyle=elbowEdgeStyle;elbow=vertical;curved=0;rounded=0;" edge="1" parent="1" source="xvh5-MRvCne1S2RhhSmQ-4" target="xvh5-MRvCne1S2RhhSmQ-13">
          <mxGeometry x="0.0588" relative="1" as="geometry">
            <mxPoint x="425" y="200" as="sourcePoint" />
            <Array as="points">
              <mxPoint x="520" y="160" />
            </Array>
            <mxPoint x="555" y="200" as="targetPoint" />
            <mxPoint as="offset" />
          </mxGeometry>
        </mxCell>
        <mxCell id="xvh5-MRvCne1S2RhhSmQ-24" value="Журнал найден" style="html=1;verticalAlign=bottom;endArrow=open;dashed=1;endSize=8;edgeStyle=elbowEdgeStyle;elbow=vertical;curved=0;rounded=0;" edge="1" parent="1">
          <mxGeometry relative="1" as="geometry">
            <mxPoint x="545" y="200" as="targetPoint" />
            <Array as="points">
              <mxPoint x="485" y="200" />
            </Array>
            <mxPoint x="415" y="200" as="sourcePoint" />
          </mxGeometry>
        </mxCell>
        <mxCell id="xvh5-MRvCne1S2RhhSmQ-25" value="Возврат журнала" style="html=1;verticalAlign=bottom;endArrow=block;edgeStyle=elbowEdgeStyle;elbow=vertical;curved=0;rounded=0;" edge="1" parent="1">
          <mxGeometry x="0.0588" relative="1" as="geometry">
            <mxPoint x="135" y="600" as="sourcePoint" />
            <Array as="points">
              <mxPoint x="152.5" y="600" />
            </Array>
            <mxPoint x="265" y="600" as="targetPoint" />
            <mxPoint as="offset" />
          </mxGeometry>
        </mxCell>
        <mxCell id="xvh5-MRvCne1S2RhhSmQ-26" value="Сохранение журнала &lt;br&gt;в личных вещах" style="html=1;verticalAlign=bottom;endArrow=block;edgeStyle=elbowEdgeStyle;elbow=vertical;curved=0;rounded=0;" edge="1" parent="1">
          <mxGeometry y="10" relative="1" as="geometry">
            <mxPoint x="275" y="610" as="sourcePoint" />
            <Array as="points">
              <mxPoint x="297.5" y="610" />
            </Array>
            <mxPoint x="405" y="610" as="targetPoint" />
            <mxPoint as="offset" />
          </mxGeometry>
        </mxCell>
        <mxCell id="xvh5-MRvCne1S2RhhSmQ-27" value="Журнал сохранен" style="html=1;verticalAlign=bottom;endArrow=open;dashed=1;endSize=8;edgeStyle=elbowEdgeStyle;elbow=vertical;curved=0;rounded=0;" edge="1" parent="1">
          <mxGeometry relative="1" as="geometry">
            <mxPoint x="275" y="650" as="targetPoint" />
            <Array as="points">
              <mxPoint x="345" y="650" />
            </Array>
            <mxPoint x="405" y="650" as="sourcePoint" />
          </mxGeometry>
        </mxCell>
        <mxCell id="xvh5-MRvCne1S2RhhSmQ-28" value="Журнал возвращен&lt;br&gt;&amp;nbsp;старосте" style="html=1;verticalAlign=bottom;endArrow=open;dashed=1;endSize=8;edgeStyle=elbowEdgeStyle;elbow=vertical;curved=0;rounded=0;" edge="1" parent="1">
          <mxGeometry relative="1" as="geometry">
            <mxPoint x="135" y="670" as="targetPoint" />
            <Array as="points">
              <mxPoint x="210" y="670" />
            </Array>
            <mxPoint x="265" y="670" as="sourcePoint" />
          </mxGeometry>
        </mxCell>
        <mxCell id="xvh5-MRvCne1S2RhhSmQ-29" value="Заполнение журнала" style="html=1;verticalAlign=bottom;endArrow=block;edgeStyle=elbowEdgeStyle;elbow=vertical;curved=0;rounded=0;" edge="1" parent="1" source="aM9ryv3xv72pqoxQDRHE-4" target="xvh5-MRvCne1S2RhhSmQ-13">
          <mxGeometry x="-0.5185" relative="1" as="geometry">
            <mxPoint x="170" y="500" as="sourcePoint" />
            <Array as="points">
              <mxPoint x="187.5" y="500" />
            </Array>
            <mxPoint x="300" y="500" as="targetPoint" />
            <mxPoint as="offset" />
          </mxGeometry>
        </mxCell>
        <mxCell id="xvh5-MRvCne1S2RhhSmQ-30" value="Журнал заполнен" style="html=1;verticalAlign=bottom;endArrow=open;dashed=1;endSize=8;edgeStyle=elbowEdgeStyle;elbow=vertical;curved=0;rounded=0;" edge="1" parent="1" source="xvh5-MRvCne1S2RhhSmQ-1" target="aM9ryv3xv72pqoxQDRHE-4">
          <mxGeometry x="0.5264" relative="1" as="geometry">
            <mxPoint x="260" y="530" as="targetPoint" />
            <Array as="points">
              <mxPoint x="330" y="530" />
            </Array>
            <mxPoint x="390" y="530" as="sourcePoint" />
            <mxPoint as="offset" />
          </mxGeometry>
        </mxCell>
        <mxCell id="xvh5-MRvCne1S2RhhSmQ-31" value="loop" style="shape=umlFrame;whiteSpace=wrap;html=1;pointerEvents=0;width=60;height=20;" vertex="1" parent="1">
          <mxGeometry x="40" y="310" width="460" height="410" as="geometry" />
        </mxCell>
        <mxCell id="xvh5-MRvCne1S2RhhSmQ-32" value="Каждое &lt;br&gt;занятие" style="text;html=1;align=center;verticalAlign=middle;resizable=0;points=[];autosize=1;strokeColor=none;fillColor=none;" vertex="1" parent="1">
          <mxGeometry x="30" y="330" width="70" height="40" as="geometry" />
        </mxCell>
        <mxCell id="xvh5-MRvCne1S2RhhSmQ-33" value="Возврат журнала" style="html=1;verticalAlign=bottom;endArrow=block;edgeStyle=elbowEdgeStyle;elbow=vertical;curved=0;rounded=0;" edge="1" parent="1">
          <mxGeometry x="-0.5993" relative="1" as="geometry">
            <mxPoint x="275" y="850" as="sourcePoint" />
            <Array as="points">
              <mxPoint x="287.5" y="850" />
            </Array>
            <mxPoint x="545" y="850" as="targetPoint" />
            <mxPoint as="offset" />
          </mxGeometry>
        </mxCell>
        <mxCell id="xvh5-MRvCne1S2RhhSmQ-36" value="Журнал возвращен&lt;br&gt;в деканат" style="html=1;verticalAlign=bottom;endArrow=open;dashed=1;endSize=8;edgeStyle=elbowEdgeStyle;elbow=vertical;curved=0;rounded=0;" edge="1" parent="1">
          <mxGeometry x="0.5185" relative="1" as="geometry">
            <mxPoint x="275" y="900" as="targetPoint" />
            <Array as="points">
              <mxPoint x="345" y="900" />
            </Array>
            <mxPoint x="545" y="900" as="sourcePoint" />
            <mxPoint as="offset" />
          </mxGeometry>
        </mxCell>
        <mxCell id="xvh5-MRvCne1S2RhhSmQ-38" value="Поиск журнала" style="html=1;verticalAlign=bottom;endArrow=block;edgeStyle=elbowEdgeStyle;elbow=vertical;curved=0;rounded=0;" edge="1" parent="1" source="aM9ryv3xv72pqoxQDRHE-6" target="xvh5-MRvCne1S2RhhSmQ-13">
          <mxGeometry x="0.0588" relative="1" as="geometry">
            <mxPoint x="270" y="770" as="sourcePoint" />
            <Array as="points">
              <mxPoint x="287.5" y="770" />
            </Array>
            <mxPoint x="400" y="770" as="targetPoint" />
            <mxPoint as="offset" />
          </mxGeometry>
        </mxCell>
        <mxCell id="xvh5-MRvCne1S2RhhSmQ-39" value="Журнал найден" style="html=1;verticalAlign=bottom;endArrow=open;dashed=1;endSize=8;edgeStyle=elbowEdgeStyle;elbow=vertical;curved=0;rounded=0;" edge="1" parent="1" source="xvh5-MRvCne1S2RhhSmQ-13" target="aM9ryv3xv72pqoxQDRHE-6">
          <mxGeometry relative="1" as="geometry">
            <mxPoint x="280" y="800" as="targetPoint" />
            <Array as="points">
              <mxPoint x="345" y="800" />
            </Array>
            <mxPoint x="410" y="800" as="sourcePoint" />
          </mxGeometry>
        </mxCell>
        <mxCell id="xvh5-MRvCne1S2RhhSmQ-40" value="Конец&lt;br&gt;семестра" style="shape=umlFrame;whiteSpace=wrap;html=1;pointerEvents=0;width=80;height=35;" vertex="1" parent="1">
          <mxGeometry x="180" y="740" width="420" height="200" as="geometry" />
        </mxCell>
      </root>
    </mxGraphModel>
  </diagram>
  <diagram id="lu26H9I0iD7uWJXLpKPt" name="Электронный">
    <mxGraphModel dx="1195" dy="703" grid="1" gridSize="10" guides="1" tooltips="1" connect="1" arrows="1" fold="1" page="1" pageScale="1" pageWidth="827" pageHeight="1169" math="0" shadow="0">
      <root>
        <mxCell id="0" />
        <mxCell id="1" parent="0" />
        <mxCell id="oANPXpV80WWI0K3NVhae-1" value="Преподаватель" style="shape=umlLifeline;perimeter=lifelinePerimeter;whiteSpace=wrap;html=1;container=0;dropTarget=0;collapsible=0;recursiveResize=0;outlineConnect=0;portConstraint=eastwest;newEdgeStyle={&quot;edgeStyle&quot;:&quot;elbowEdgeStyle&quot;,&quot;elbow&quot;:&quot;vertical&quot;,&quot;curved&quot;:0,&quot;rounded&quot;:0};" vertex="1" parent="1">
          <mxGeometry x="80" y="40" width="100" height="500" as="geometry" />
        </mxCell>
        <mxCell id="oANPXpV80WWI0K3NVhae-2" value="" style="html=1;points=[];perimeter=orthogonalPerimeter;outlineConnect=0;targetShapes=umlLifeline;portConstraint=eastwest;newEdgeStyle={&quot;edgeStyle&quot;:&quot;elbowEdgeStyle&quot;,&quot;elbow&quot;:&quot;vertical&quot;,&quot;curved&quot;:0,&quot;rounded&quot;:0};" vertex="1" parent="oANPXpV80WWI0K3NVhae-1">
          <mxGeometry x="45" y="300" width="10" height="180" as="geometry" />
        </mxCell>
        <mxCell id="oANPXpV80WWI0K3NVhae-3" value="Запрос списка группы" style="html=1;verticalAlign=bottom;endArrow=block;edgeStyle=elbowEdgeStyle;elbow=vertical;curved=0;rounded=0;" edge="1" parent="oANPXpV80WWI0K3NVhae-1" source="oANPXpV80WWI0K3NVhae-2">
          <mxGeometry x="0.0588" relative="1" as="geometry">
            <mxPoint x="52.5" y="300" as="sourcePoint" />
            <Array as="points">
              <mxPoint x="67.5" y="300" />
            </Array>
            <mxPoint x="185" y="300" as="targetPoint" />
            <mxPoint as="offset" />
          </mxGeometry>
        </mxCell>
        <mxCell id="oANPXpV80WWI0K3NVhae-4" value="Подсистема" style="shape=umlLifeline;perimeter=lifelinePerimeter;whiteSpace=wrap;html=1;container=0;dropTarget=0;collapsible=0;recursiveResize=0;outlineConnect=0;portConstraint=eastwest;newEdgeStyle={&quot;edgeStyle&quot;:&quot;elbowEdgeStyle&quot;,&quot;elbow&quot;:&quot;vertical&quot;,&quot;curved&quot;:0,&quot;rounded&quot;:0};" vertex="1" parent="1">
          <mxGeometry x="220" y="40" width="100" height="500" as="geometry" />
        </mxCell>
        <mxCell id="oANPXpV80WWI0K3NVhae-5" value="" style="html=1;points=[];perimeter=orthogonalPerimeter;outlineConnect=0;targetShapes=umlLifeline;portConstraint=eastwest;newEdgeStyle={&quot;edgeStyle&quot;:&quot;elbowEdgeStyle&quot;,&quot;elbow&quot;:&quot;vertical&quot;,&quot;curved&quot;:0,&quot;rounded&quot;:0};" vertex="1" parent="oANPXpV80WWI0K3NVhae-4">
          <mxGeometry x="45" y="60" width="10" height="420" as="geometry" />
        </mxCell>
        <mxCell id="oANPXpV80WWI0K3NVhae-6" value="Деканат" style="shape=umlLifeline;perimeter=lifelinePerimeter;whiteSpace=wrap;html=1;container=0;dropTarget=0;collapsible=0;recursiveResize=0;outlineConnect=0;portConstraint=eastwest;newEdgeStyle={&quot;edgeStyle&quot;:&quot;elbowEdgeStyle&quot;,&quot;elbow&quot;:&quot;vertical&quot;,&quot;curved&quot;:0,&quot;rounded&quot;:0};" vertex="1" parent="1">
          <mxGeometry x="360" y="40" width="100" height="500" as="geometry" />
        </mxCell>
        <mxCell id="oANPXpV80WWI0K3NVhae-7" value="" style="html=1;points=[];perimeter=orthogonalPerimeter;outlineConnect=0;targetShapes=umlLifeline;portConstraint=eastwest;newEdgeStyle={&quot;edgeStyle&quot;:&quot;elbowEdgeStyle&quot;,&quot;elbow&quot;:&quot;vertical&quot;,&quot;curved&quot;:0,&quot;rounded&quot;:0};" vertex="1" parent="oANPXpV80WWI0K3NVhae-6">
          <mxGeometry x="45" y="70" width="10" height="80" as="geometry" />
        </mxCell>
        <mxCell id="oANPXpV80WWI0K3NVhae-13" value="Контроль заполнения журнала" style="shape=umlFrame;whiteSpace=wrap;html=1;pointerEvents=0;width=80;height=55;" vertex="1" parent="1">
          <mxGeometry x="170" y="85" width="330" height="135" as="geometry" />
        </mxCell>
        <mxCell id="oANPXpV80WWI0K3NVhae-15" value="Список группы" style="html=1;verticalAlign=bottom;endArrow=open;dashed=1;endSize=8;edgeStyle=elbowEdgeStyle;elbow=vertical;curved=0;rounded=0;" edge="1" parent="1" source="oANPXpV80WWI0K3NVhae-5" target="oANPXpV80WWI0K3NVhae-2">
          <mxGeometry relative="1" as="geometry">
            <mxPoint x="130" y="390" as="targetPoint" />
            <Array as="points">
              <mxPoint x="195" y="390" />
            </Array>
            <mxPoint x="260" y="390" as="sourcePoint" />
          </mxGeometry>
        </mxCell>
        <mxCell id="oANPXpV80WWI0K3NVhae-17" value="Запрос статистики&lt;br&gt;работы преподователя" style="html=1;verticalAlign=bottom;endArrow=block;edgeStyle=elbowEdgeStyle;elbow=vertical;curved=0;rounded=0;" edge="1" parent="1">
          <mxGeometry y="-10" relative="1" as="geometry">
            <mxPoint x="405" y="130" as="sourcePoint" />
            <Array as="points">
              <mxPoint x="385" y="130" />
            </Array>
            <mxPoint x="275" y="130" as="targetPoint" />
            <mxPoint as="offset" />
          </mxGeometry>
        </mxCell>
        <mxCell id="oANPXpV80WWI0K3NVhae-18" value="Статистика" style="html=1;verticalAlign=bottom;endArrow=open;dashed=1;endSize=8;edgeStyle=elbowEdgeStyle;elbow=vertical;curved=0;rounded=0;" edge="1" parent="1" source="oANPXpV80WWI0K3NVhae-5" target="oANPXpV80WWI0K3NVhae-7">
          <mxGeometry relative="1" as="geometry">
            <mxPoint x="410" y="170" as="targetPoint" />
            <Array as="points">
              <mxPoint x="350" y="170" />
            </Array>
            <mxPoint x="280" y="170" as="sourcePoint" />
          </mxGeometry>
        </mxCell>
        <mxCell id="oANPXpV80WWI0K3NVhae-23" value="Заполнение журнала" style="html=1;verticalAlign=bottom;endArrow=block;edgeStyle=elbowEdgeStyle;elbow=vertical;curved=0;rounded=0;" edge="1" parent="1">
          <mxGeometry relative="1" as="geometry">
            <mxPoint x="135" y="430" as="sourcePoint" />
            <Array as="points">
              <mxPoint x="187.5" y="430" />
            </Array>
            <mxPoint x="265" y="430" as="targetPoint" />
            <mxPoint as="offset" />
          </mxGeometry>
        </mxCell>
        <mxCell id="oANPXpV80WWI0K3NVhae-25" value="loop" style="shape=umlFrame;whiteSpace=wrap;html=1;pointerEvents=0;width=60;height=20;" vertex="1" parent="1">
          <mxGeometry x="40" y="310" width="270" height="240" as="geometry" />
        </mxCell>
        <mxCell id="oANPXpV80WWI0K3NVhae-26" value="Каждое &lt;br&gt;занятие" style="text;html=1;align=center;verticalAlign=middle;resizable=0;points=[];autosize=1;strokeColor=none;fillColor=none;" vertex="1" parent="1">
          <mxGeometry x="30" y="330" width="70" height="40" as="geometry" />
        </mxCell>
        <mxCell id="oANPXpV80WWI0K3NVhae-32" value="Данные сохранены" style="html=1;verticalAlign=bottom;endArrow=open;dashed=1;endSize=8;edgeStyle=elbowEdgeStyle;elbow=vertical;curved=0;rounded=0;" edge="1" parent="1" source="oANPXpV80WWI0K3NVhae-5" target="oANPXpV80WWI0K3NVhae-2">
          <mxGeometry relative="1" as="geometry">
            <mxPoint x="140" y="470" as="targetPoint" />
            <Array as="points">
              <mxPoint x="210" y="470" />
            </Array>
            <mxPoint x="270" y="470" as="sourcePoint" />
          </mxGeometry>
        </mxCell>
      </root>
    </mxGraphModel>
  </diagram>
</mxfile>
